# xmcd
#
# Track frame offsets:
#	200
#	18730
#	38652
#	59190
#	78497
#	99542
#	119540
#	137720
#	155680
#	179157
#	202235
#
# Disc length: 2972 seconds
#
# Revision: 3
# Processed by: cddbd v1.5.2PL0 Copyright (c) Steve Scherf et al.
# Submitted via: EasyCDDAExtractor 15.3.0.1
#
DISCID=aa0b9a0b
DTITLE=Cher - It's A Man's World (US Edition)
DYEAR=1996
DGENRE=R&B/Pop
TTITLE0=One By One
TTITLE1=Not Enough Love In The World
TTITLE2=Angels Running
TTITLE3=What About The Moonlight
TTITLE4=Paradise Is Here
TTITLE5=The Same Mistake
TTITLE6=I'm Blowin' Away
TTITLE7=Walking In Memphis
TTITLE8=The Sun Ain't Gonna Shine Anymore
TTITLE9=The Gunman
TTITLE10=It's A Man's Man's Man's World
EXTD=
EXTT0=
EXTT1=
EXTT2=
EXTT3=
EXTT4=
EXTT5=
EXTT6=
EXTT7=
EXTT8=
EXTT9=
EXTT10=
PLAYORDER=
